HIERARCHY
ROOT Hips
{
  OFFSET 0 0 0
  CHANNELS 6 Xposition Yposition Zposition Zrotation Yrotation Xrotation
  JOINT LeftThigh
  {
    OFFSET 8.409438 0 -5.917753
    CHANNELS 3 Zrotation Yrotation Xrotation
    JOINT LeftLeg
    {
      OFFSET 0 0 -42.358652
      CHANNELS 3 Zrotation Yrotation Xrotation
      JOINT LeftFoot
      {
        OFFSET 0 0 -39.357303
        CHANNELS 3 Zrotation Yrotation Xrotation
      }
    }
  }
  JOINT RightThigh
  {
    OFFSET -8.409438 0 -5.917753
    CHANNELS 3 Zrotation Yrotation Xrotation
    JOINT RightLeg
    {
      OFFSET 0 0 -42.358652
      CHANNELS 3 Zrotation Yrotation Xrotation
      JOINT RightFoot
      {
        OFFSET 0 0 -39.357303
        CHANNELS 3 Zrotation Yrotation Xrotation
      }
    }
  }
  JOINT SpineLow
  {
    OFFSET 0 0 4.719101
    CHANNELS 3 Zrotation Yrotation Xrotation
    JOINT SpineMid
    {
      OFFSET 0 0 12.899191
      CHANNELS 3 Zrotation Yrotation Xrotation
      JOINT Chest
      {
        OFFSET 0 0 12.899191
        CHANNELS 3 Zrotation Yrotation Xrotation
        JOINT LeftShoulder
        {
          OFFSET 7.550562 1.41573 9.438202
          CHANNELS 3 Zrotation Yrotation Xrotation
          JOINT LeftArm
          {
            OFFSET 9.155056 0 4.247191
            CHANNELS 3 Zrotation Yrotation Xrotation
            JOINT LeftForearm
            {
              OFFSET 0 0 25.771955
              CHANNELS 3 Zrotation Yrotation Xrotation
              JOINT LeftHand
              {
                OFFSET 0 0 25.197169
                CHANNELS 3 Zrotation Yrotation Xrotation
              }
            }
          }
        }
        JOINT RightShoulder
        {
          OFFSET -7.550562 1.41573 9.438202
          CHANNELS 3 Zrotation Yrotation Xrotation
          JOINT RightArm
          {
            OFFSET -9.155056 0 4.247191
            CHANNELS 3 Zrotation Yrotation Xrotation
            JOINT RightForearm
            {
              OFFSET 0 0 -25.771955
              CHANNELS 3 Zrotation Yrotation Xrotation
              JOINT RightHand
              {
                OFFSET 0 0 -25.197169
                CHANNELS 3 Zrotation Yrotation Xrotation
              }
            }
          }
        }
        JOINT Neck
        {
          OFFSET 0 0 15.101124
          CHANNELS 3 Zrotation Yrotation Xrotation
          JOINT Head
          {
            OFFSET 0 0 11.325843
            CHANNELS 3 Zrotation Yrotation Xrotation
            End Site
            {
              OFFSET 0 0 14.157303
            }
          }
        }
      }
    }
  }
}
MOTION
Frames: 17
Frame Time: 0.0
0.0  93.25843  0.0  2.875433  24.16401  -84.55607  -12.427798  -11.108168  -14.283657  -2.433656  -3.878162  11.352021  5.378935  -0.100995  4.145366  -32.859402  4.843659  -10.812386  -17.584606  7.65824  4.38387  1.434888  0.217646  0.86885  3.182452  1.128602  0.383676  8.722221  3.02822  1.195845  8.722221  3.02822  1.195844  -54.231416  15.146265  0.373715  147.603721  46.112723  -141.710712  -34.616863  18.898741  80.574152  86.439381  -10.035093  -27.94848  6.649278  -28.2466  30.968148  58.129019  71.489224  22.077629  19.755896  19.078881  -23.21325  97.282963  30.732966  22.265596  -23.183731  -0.817629  16.162226  -17.380585  -1.230167  12.111331  
0.0  93.25843  0.0  2.863146  24.471052  -84.566351  -12.775673  -11.268332  -14.523185  -3.033383  -3.667859  11.249639  5.854418  -0.073437  4.54692  -32.923816  4.761711  -10.749425  -17.647223  7.818668  4.502665  1.396712  0.274012  0.854854  3.133234  1.119323  0.382273  8.587307  3.004058  1.188571  8.587307  3.004058  1.188572  -53.989918  15.234007  0.386022  147.5253  46.067121  -141.699317  -34.563665  18.483343  80.536547  86.802666  -9.845667  -28.390526  6.946436  -28.238779  31.149726  56.762022  71.631888  20.862565  19.552817  18.715257  -22.739157  97.868929  31.527017  21.638307  -23.050803  -0.824502  16.161163  -17.280616  -1.231735  12.110209  
0.0  93.25843  0.0  2.828472  24.769978  -84.577963  -12.950358  -11.418181  -14.6911  -3.216855  -3.454631  11.597713  5.900282  -0.068111  4.543186  -33.056247  4.712708  -10.703202  -17.646845  7.947412  4.648488  1.378262  0.305089  0.859671  3.068525  1.102862  0.371487  8.409433  2.961783  1.154107  8.409433  2.961783  1.154107  -53.770795  15.356432  0.347484  147.602148  46.021806  -141.643184  -34.191166  18.086806  80.511816  87.557682  -9.506302  -29.109694  7.003015  -28.098292  31.176772  55.734228  71.597837  19.891703  19.5434  18.45055  -22.980088  97.831971  31.70085  20.632472  -22.983611  -0.799114  16.14542  -17.23086  -1.210253  12.099319  
0.0  93.25843  0.0  2.816284  25.115717  -84.599732  -13.327592  -11.560051  -14.982516  -3.610406  -3.182222  11.879603  6.148849  -0.04414  4.751466  -33.230732  4.677446  -10.665793  -17.685052  8.130938  4.788149  1.517561  0.346076  0.896505  2.986518  1.093353  0.354201  8.184155  2.93953  1.102092  8.184156  2.93953  1.102091  -53.375927  15.487938  0.420465  147.728571  45.951696  -141.555208  -34.042828  17.503017  80.371764  88.014914  -9.167363  -29.478204  7.396288  -28.127163  31.394389  54.39245  71.64225  18.81818  19.221422  18.095225  -23.152893  97.67084  31.879529  19.706243  -22.760915  -0.760669  16.193105  -17.064761  -1.177187  12.136491  
0.0  93.25843  0.0  2.757317  25.424074  -84.623398  -13.514881  -11.710793  -15.254546  -3.788709  -2.897588  12.46211  6.186189  -0.042226  4.753817  -33.348452  4.635329  -10.635738  -17.828158  8.312348  4.954313  1.485398  0.3871  0.907538  2.917048  1.07142  0.325403  7.992405  2.884422  1.01773  7.992405  2.884422  1.017731  -53.164732  15.691987  0.424174  147.801903  45.873606  -141.563708  -33.671392  17.260458  80.371991  88.506754  -8.83168  -30.180153  7.317346  -27.984795  31.458518  53.81172  71.428423  18.297738  18.981329  17.818944  -23.460346  97.337819  32.010376  18.786065  -22.70077  -0.68486  16.236734  -17.021696  -1.120215  12.17209  
0.0  93.25843  0.0  2.785451  25.877246  -84.581889  -14.061099  -11.791051  -15.792799  -4.144603  -2.576488  13.061993  6.406585  -0.010288  4.937994  -33.706285  4.585457  -10.739278  -18.139043  8.553432  5.111774  1.622976  0.449741  0.961839  2.802919  1.057136  0.283558  7.678181  2.85221  0.896861  7.678181  2.85221  0.89686  -52.686075  15.907938  0.509203  147.866161  45.802009  -141.624718  -33.617236  17.248945  80.296878  88.568792  -8.68793  -30.503862  7.682768  -27.971783  31.742996  53.064112  71.26542  17.799813  18.390556  17.620111  -23.71095  96.981554  32.14516  17.87143  -22.502274  -0.544437  16.329576  -16.876577  -1.012757  12.246938  
0.0  93.25843  0.0  2.706832  26.10025  -84.661002  -13.982163  -11.870612  -16.09784  -4.503533  -2.225197  13.813501  6.406217  0.002373  4.930008  -33.760669  4.530473  -10.741239  -18.388105  8.838749  5.339713  1.600121  0.517704  0.986402  2.710679  1.024692  0.246642  7.423749  2.769174  0.788426  7.423749  2.769174  0.788426  -52.313426  16.194615  0.532189  147.904607  45.711988  -141.649374  -33.7073  17.460826  80.146775  88.67855  -8.645226  -30.82015  7.606942  -27.720047  31.870532  53.647701  70.879919  18.237028  17.719091  17.41638  -24.141951  96.546015  32.258634  16.831927  -22.352333  -0.381758  16.389253  -16.768497  -0.888608  12.297639  
0.0  93.25843  0.0  2.740293  26.53995  -84.623568  -14.859732  -11.861695  -16.986925  -4.547104  -1.985617  14.990437  6.630742  0.039866  5.126479  -34.179102  4.439814  -10.944968  -18.898767  9.135918  5.529369  1.795774  0.623759  1.03927  2.559135  1.000959  0.195517  7.006812  2.71179  0.639952  7.006812  2.71179  0.639953  -51.724146  16.457512  0.652549  147.951078  45.663542  -141.642232  -33.910763  17.751617  79.997456  88.654435  -8.669932  -31.010489  8.004826  -27.542604  32.227994  53.372574  70.718248  18.048145  16.854865  17.1743  -24.671028  96.045622  32.375985  15.664501  -22.061716  -0.149885  16.459552  -16.55671  -0.708978  12.358538  
0.0  93.25843  0.0  2.652067  26.584974  -84.747398  -14.543614  -11.804826  -17.299809  -5.043153  -1.65543  15.844336  6.655197  0.074595  5.132937  -34.074785  4.350317  -11.019533  -19.075879  9.523677  5.868724  1.789758  0.715817  1.06438  2.459899  0.957643  0.156099  6.733242  2.598619  0.523797  6.733242  2.598619  0.523797  -51.221375  16.815563  0.726015  148.102263  45.598916  -141.60654  -33.901013  17.87369  79.920051  88.678394  -8.583443  -31.26951  7.88076  -27.112488  32.386496  54.224765  70.300061  18.567644  16.012015  16.902113  -25.404357  95.518024  32.443824  14.360803  -21.836774  0.097488  16.478563  -16.394549  -0.517587  12.381331  
0.0  93.25843  0.0  2.631596  26.697763  -84.826995  -14.788751  -11.640467  -17.922291  -4.940453  -1.577716  17.223856  6.553927  0.142016  5.068227  -34.195866  4.250812  -11.241891  -19.248706  9.943874  6.250243  1.838459  0.813076  1.088438  2.330681  0.91876  0.116942  6.37791  2.497382  0.408005  6.37791  2.497382  0.408005  -50.512233  16.97725  0.843999  148.475926  45.461456  -141.552488  -33.566542  18.036332  80.121997  88.710532  -8.320505  -31.533604  8.516159  -26.853513  32.772222  52.861288  70.216152  17.551321  15.155497  16.658802  -26.416083  95.000282  32.447441  12.916787  -21.551899  0.398822  16.482959  -16.188767  -0.283478  12.394685  
0.0  93.25843  0.0  2.503572  26.477835  -85.05269  -14.237546  -11.580502  -18.109605  -5.352665  -1.324945  18.055341  6.458176  0.283695  5.073848  -33.832809  4.166707  -11.301488  -19.377227  10.404848  6.664119  1.822834  0.891906  1.120077  2.233863  0.859583  0.085482  6.111426  2.339381  0.312924  6.111426  2.339381  0.312924  -49.874479  17.317362  0.87145  148.742136  45.345369  -141.545155  -33.112206  17.750546  80.328292  88.878202  -7.816122  -31.693627  8.357405  -26.326813  32.781653  53.822203  69.610829  18.374251  14.306632  16.48323  -27.730842  94.524664  32.345553  11.370242  -21.240556  0.718974  16.476898  -15.963516  -0.034151  12.400422  
0.0  93.25843  0.0  2.478934  26.377475  -85.177795  -13.860484  -11.551524  -18.280328  -5.660284  -1.021373  18.862382  6.432601  0.443227  5.144213  -33.634674  4.104548  -11.539005  -19.633155  10.931239  7.109673  1.838744  0.950447  1.156953  2.089781  0.82098  0.05172  5.715975  2.237671  0.212249  5.715975  2.237671  0.212249  -48.972432  17.364737  0.954764  149.166602  45.098001  -141.384756  -32.346743  17.312151  80.667581  89.122783  -7.049894  -31.713072  8.620118  -25.930244  32.892019  54.261133  69.124845  18.913605  13.271781  16.34612  -29.246519  94.075172  32.093185  9.659201  -20.845577  1.055714  16.478326  -15.67586  0.229628  12.411674  
0.0  93.25843  0.0  2.298548  25.809696  -85.431498  -13.313428  -11.628531  -18.293583  -5.975585  -0.70425  19.57464  6.3518  0.599184  5.089105  -32.98253  3.973778  -11.730031  -19.758447  11.475704  7.67158  1.830659  1.048315  1.172851  1.99833  0.759497  0.01612  5.464395  2.073048  0.106802  5.464395  2.073048  0.106802  -48.101725  17.578097  0.97121  149.707122  44.969359  -141.278977  -31.307523  16.491725  81.001192  89.361745  -6.098355  -31.600435  8.525049  -25.351958  32.856861  56.112077  68.356519  20.538356  11.944447  16.106946  -31.037696  93.497735  31.643053  7.556884  -20.418644  1.396848  16.485544  -15.364282  0.497357  12.426798  
0.0  93.25843  0.0  2.290614  25.260763  -85.58906  -12.814559  -11.571545  -18.196184  -6.262274  -0.382751  20.208054  6.520428  0.713968  5.153274  -32.35262  3.95357  -12.040052  -19.872568  11.997315  8.263123  1.757828  1.155816  1.160074  1.888552  0.735354  -0.020501  5.163011  2.010208  0.001414  5.163011  2.010208  0.001414  -47.215223  17.484507  1.086352  150.517054  44.725579  -140.957818  -30.029795  15.415619  81.351938  89.61891  -4.99082  -31.404386  8.562788  -24.920762  32.849567  58.181223  67.597034  22.477995  10.113852  15.614155  -33.12514  92.633601  31.104677  4.872906  -20.006791  1.700206  16.504706  -15.063041  0.735878  12.449224  
0.0  93.25843  0.0  2.071291  24.182498  -85.768707  -12.026565  -11.62229  -18.099163  -6.540909  -0.16347  20.716174  6.670858  0.844119  5.156856  -31.310834  3.690084  -12.403843  -19.850772  12.582213  8.940077  1.807692  1.304763  1.125735  1.882533  0.695831  -0.073595  5.144906  1.906386  -0.14691  5.144906  1.906386  -0.14691  -46.44186  17.461169  1.259084  151.261135  44.6278  -140.750306  -28.623447  14.228331  81.739678  90.029273  -3.627876  -31.145183  8.216004  -24.504033  32.699957  60.853364  66.618327  24.942549  7.833708  14.74204  -35.545848  92.010363  30.259875  1.751524  -19.680319  1.961185  16.543505  -14.824864  0.93961  12.485042  
0.0  93.25843  0.0  1.816885  22.754548  -85.893642  -10.822959  -11.565164  -17.930322  -6.199618  -0.137853  21.619968  6.245794  0.87607  4.686851  -29.978273  3.327481  -12.843487  -19.49032  13.228049  9.672289  1.578747  1.347191  1.098209  1.951779  0.678052  -0.146979  5.33215  1.86385  -0.34683  5.332151  1.86385  -0.34683  -45.90047  17.248854  1.60892  152.159083  44.478889  -140.498254  -27.151901  12.961346  82.181694  90.606022  -1.876889  -30.87399  7.654658  -24.228594  32.592506  63.038974  65.558204  26.967127  5.343389  13.422862  -38.284003  91.399068  28.789605  -1.629246  -19.470994  2.148363  16.633161  -14.672988  1.083104  12.557086  
0.0  93.25843  0.0  1.551712  20.933006  -85.983056  -9.308445  -11.48242  -17.750351  -6.296498  -0.227828  21.98893  6.232478  1.012428  4.640865  -28.355169  2.848087  -13.370371  -19.205538  13.814368  10.40088  1.611696  1.542704  1.057653  2.100958  0.675576  -0.208458  5.738285  1.863107  -0.510761  5.738285  1.863107  -0.510761  -45.51636  16.854317  1.973366  153.000459  44.300284  -140.290275  -25.568787  11.511085  82.687233  91.297496  0.250974  -30.618739  6.731967  -24.03465  32.195428  65.162978  64.284471  28.876582  2.925686  11.660824  -41.215446  90.72511  26.688738  -4.891883  -19.360503  2.26454  16.668014  -14.593214  1.172325  12.586215  
